HIERARCHY
ROOT hip
{
	OFFSET 0.000000 0.000000 0.000000 
	CHANNELS 6 Xposition Yposition Zposition Xrotation Zrotation Yrotation
	JOINT abdomen
	{
		OFFSET 0.000000 3.402643 0.000000 
		CHANNELS 3 Xrotation Zrotation Yrotation
		JOINT chest
		{
			OFFSET 0.000000 8.438565 -0.680529 
			CHANNELS 3 Xrotation Zrotation Yrotation
			JOINT neck
			{
				OFFSET 0.000000 10.207942 -0.272212 
				CHANNELS 3 Xrotation Zrotation Yrotation
				JOINT head
				{
					OFFSET 0.000000 3.130431 0.000000 
					CHANNELS 3 Xrotation Zrotation Yrotation
					End Site
					{
						OFFSET 0.000000 3.130435 0.000000 
					}
				}
			}
			JOINT lCollar
			{
				OFFSET 3.470700 6.669187 -0.816635 
				CHANNELS 3 Yrotation Zrotation Xrotation
				JOINT lShldr
				{
					OFFSET 3.198488 0.000000 0.000000 
					CHANNELS 3 Zrotation Yrotation Xrotation
					JOINT lForeArm
					{
						OFFSET 10.139888 0.000000 0.000000 
						CHANNELS 3 Yrotation Zrotation Xrotation
						JOINT lHand
						{
							OFFSET 8.370511 0.000000 0.000000 
							CHANNELS 3 Zrotation Yrotation Xrotation
							End Site
							{
								OFFSET 4.083176 0.000000 0.000000 
							}
						}
					}
				}
			}
			JOINT rCollar
			{
				OFFSET -3.470700 6.669187 -0.816635 
				CHANNELS 3 Yrotation Zrotation Xrotation
				JOINT rShldr
				{
					OFFSET -3.198488 0.000000 0.000000 
					CHANNELS 3 Zrotation Yrotation Xrotation
					JOINT rForeArm
					{
						OFFSET -10.139888 0.000000 0.000000 
						CHANNELS 3 Yrotation Zrotation Xrotation
						JOINT rHand
						{
							OFFSET -8.370511 0.000000 0.000000 
							CHANNELS 3 Zrotation Yrotation Xrotation
							End Site
							{
								OFFSET -4.083176 0.000000 0.000000 
							}
						}
					}
				}
			}
		}
	}
	JOINT lThigh
	{
		OFFSET 5.308129 -1.633274 1.361059 
		CHANNELS 3 Xrotation Zrotation Yrotation
		JOINT lShin
		{
			OFFSET -2.041588 -20.007561 0.000000 
			CHANNELS 3 Xrotation Zrotation Yrotation
			JOINT lFoot
			{
				OFFSET 0.000000 -19.190928 -1.224953 
				CHANNELS 3 Xrotation Yrotation Zrotation
				End Site
				{
					OFFSET 0.000000 -2.449906 4.627600 
				}
			}
		}
	}
	JOINT rThigh
	{
		OFFSET -5.308129 -1.633274 1.361059 
		CHANNELS 3 Xrotation Zrotation Yrotation
		JOINT rShin
		{
			OFFSET 2.041588 -20.007561 0.000000 
			CHANNELS 3 Xrotation Zrotation Yrotation
			JOINT rFoot
			{
				OFFSET 0.000000 -19.190928 -1.224953 
				CHANNELS 3 Xrotation Yrotation Zrotation
				End Site
				{
					OFFSET 0.000000 -2.449906 4.627600 
				}
			}
		}
	}
}
MOTION
Frames: 6
Frame Time: 0.033333
3.562825 38.294365 -0.198120 -7.412110 -12.734376 119.921883 43.190857 -6.603019 -14.345277 -25.732424 5.644532 -5.175781 51.063168 8.107644 2.471410 -76.240234 12.617186 15.654299 2.000000 -2.000000 0.000000 -62.509769 -18.271484 -43.623043 -138.932190 2.070684 -2.454707 -33.834011 26.821453 -10.586592 -2.000000 2.000000 0.000000 63.642574 -35.761719 -6.406250 101.128906 -0.670174 -2.988694 -39.019852 -30.538086 39.812458 -69.155983 44.893284 27.448116 73.803406 -1.774766 -4.963692 5.490715 21.126360 3.432199 -71.696625 -28.542936 -16.833076 67.818642 1.708885 4.240043 11.749327 -21.151846 3.663603 
3.577140 38.310127 -0.198988 -7.216797 -12.753907 119.890419 43.190857 -6.603019 -14.345277 -25.380859 5.644531 -5.146484 51.063168 8.107644 2.471410 -76.787109 12.763671 15.654299 2.000000 -2.000000 0.000000 -62.714844 -18.261719 -43.300781 -139.107986 2.060935 -2.454139 -33.512646 26.986275 -10.668672 -2.000000 2.000000 0.000000 63.300781 -35.449219 -6.416016 101.304680 -0.679924 -2.989258 -38.916916 -30.319180 39.934387 -69.155991 44.893280 27.448114 73.803398 -1.774764 -4.963691 5.472999 20.976782 3.365431 -71.696625 -28.542940 -16.833080 67.818642 1.708887 4.240045 11.726550 -21.135752 3.641367 
3.582647 38.325878 -0.191443 -7.216797 -12.753907 119.890419 43.006557 -6.615499 -14.339500 -25.029299 5.820313 -5.097657 51.063168 8.107644 2.471410 -76.787109 12.763671 15.820313 2.000000 -2.000000 0.000000 -62.753906 -18.486326 -43.574219 -138.932205 2.060935 -2.454139 -33.652927 26.824963 -10.589143 -2.000000 2.000000 0.000000 63.261719 -35.507813 -6.123048 101.635529 -1.082180 -2.631357 -39.153072 -30.533333 40.285625 -69.155991 44.893280 27.448114 73.803398 -1.774764 -4.963691 5.472999 20.976780 3.365431 -71.499413 -28.521803 -16.890810 67.821548 1.718685 4.429680 11.796354 -21.237057 3.807228 
3.591511 38.333759 -0.190078 -7.216797 -12.753907 119.890419 43.006557 -6.615499 -14.339500 -24.853516 5.810547 -5.253907 51.063168 8.107644 2.471410 -76.611328 12.773437 15.849609 2.000000 -2.000000 0.000000 -62.929688 -18.486326 -43.681641 -138.932205 2.060935 -2.454139 -33.803596 26.644485 -10.514539 -2.000000 2.000000 0.000000 62.812504 -35.302734 -5.640408 101.119011 -0.845662 -2.998844 -39.532333 -30.547686 40.343529 -69.169601 44.891762 27.255825 73.793289 -1.774410 -4.972248 5.517107 20.978676 3.379840 -71.488281 -28.510822 -17.076874 67.821548 1.718689 4.429682 11.743710 -21.183561 3.642122 
3.579153 38.318005 -0.183343 -7.207031 -12.587892 119.812325 43.006557 -6.615499 -14.339500 -24.853516 5.810547 -5.253907 51.063168 8.107644 2.471410 -76.064453 12.939453 15.908204 2.000000 -2.000000 0.000000 -62.851566 -18.886719 -44.042969 -138.756454 2.051186 -2.453570 -34.595200 26.623289 -10.715511 -2.000000 2.000000 0.000000 62.626953 -35.361328 -4.995885 100.767738 -0.825599 -3.007461 -39.088760 -31.048981 39.910778 -69.169609 44.891754 27.255833 73.793289 -1.774411 -4.972249 5.670050 21.045679 3.545799 -71.488281 -28.510818 -17.076874 67.821297 1.708994 4.433071 11.726776 -21.154028 4.021256 
3.575172 38.333759 -0.185645 -7.207031 -12.587892 119.812325 43.006557 -6.615499 -14.339500 -24.853516 5.810547 -5.253907 51.063168 8.107644 2.471410 -75.527344 12.949218 16.025391 2.000000 -2.000000 0.000000 -62.929688 -19.189451 -44.140625 -138.756454 2.051186 -2.453570 -35.652603 26.631758 -10.715484 -2.000000 2.000000 0.000000 62.539063 -35.517578 -4.810359 100.411560 -0.805947 -2.840096 -38.795517 -31.399647 39.887421 -69.169609 44.891750 27.255835 73.793289 -1.774409 -4.972248 5.670051 21.045679 3.545799 -71.488281 -28.510813 -17.076876 67.821297 1.708995 4.433071 11.891990 -21.284391 3.639318 
